<?xml version="1.0" encoding="utf-8"?>
<svg viewBox="0 0 500 500" xmlns="http://www.w3.org/2000/svg" xmlns:bx="https://boxy-svg.com">
  <path d="M 359.42 232.297 C 359.42 297.949 258.22 371.184 252.491 371.184 C 246.762 371.184 144.367 292.988 144.367 227.336 C 144.367 161.683 182.135 118.384 253.172 118.384 C 324.21 118.384 359.42 166.644 359.42 232.297 Z" style="fill: rgba(216, 216, 216, 0); stroke: rgb(193, 160, 103); stroke-width: 15px;"/>
  <path style="fill: rgb(193, 160, 103);" transform="matrix(0.002007, -0.138813, 0.240685, 0.00348, 133.057663, 290.627136)" d="M 277 816 A 317.077 317.077 0 1 1 270 181.923 L 270 243.352 A 255.648 255.648 0 1 0 275.644 754.586 Z" bx:shape="pie 270 499 255.648 317.077 178.735 360 1@ceac3738"/>
  <path style="fill: rgb(193, 160, 103);" transform="matrix(0.105732, -0.751865, 0.720749, 0.101357, -345.440735, 640.535889)" d="M 500.343 804.251 A 59.115 59.115 0 1 1 489.744 713.131 L 465.227 751.646 A 13.459 13.459 0 1 0 467.64 772.392 Z" bx:shape="pie 458 763 13.459 59.115 134.252 32.479 1@1e845c06"/>
</svg>