<?xml version="1.0" encoding="utf-8"?>
<svg viewBox="850.577 -32.594 134.354 138.872" xmlns="http://www.w3.org/2000/svg">
  <g transform="matrix(0.430181, 0, 0, 0.441329, 806.91394, -78.417625)" style="">
    <title>Layer 1</title>
    <path id="svg_3" fill="#51C85D" d="m101.5,418.5c4.1,-12.4 7.9,-23.7 11.7,-35c4.9,-14.7 9.8,-29.3 14.9,-44c0.8,-2.3 0.6,-3.9 -0.6,-6c-13.8,-24.1 -20.6,-50.1 -20.4,-77.8c0.4,-76.9 59.5,-142.5 135.6,-150.9c81.1,-8.9 153,44.4 168.5,125c15.7,82.2 -40.9,164 -123.3,178.2c-34.1,5.9 -66.6,1.2 -97.5,-14.4c-3.2,-1.6 -5.7,-1.7 -9,-0.6c-24.5,8 -49.1,15.8 -73.6,23.6c-1.6,0.5 -3.4,1 -6.3,1.9zm39.9,-39.2c15.6,-5 30.1,-9.5 44.5,-14.3c2.9,-1 5.1,-0.8 7.9,0.9c28.4,17.1 58.9,22.5 91.6,16.4c76.7,-14.2 123.1,-98.7 93.9,-171.4c-28.1,-70.1 -107.2,-101.4 -174.9,-67.9c-45.6,22.6 -69.3,60.8 -71.3,111.9c-1.1,27.1 6.9,51.9 22.1,74.3c1.5,2.2 1.7,3.9 0.8,6.4c-3.2,9.1 -6.2,18.3 -9.3,27.4c-1.6,5 -3.3,10.2 -5.3,16.3z"/>
    <path id="svg_4" fill="#51C85D" d="m210.6,182.1c2.3,0.2 4.6,0.6 7,0.6c3.6,-0.1 5.7,1.8 6.9,4.8c4.2,10.9 8.3,21.7 12.3,32.7c1.3,3.5 -0.2,6.6 -2.2,9.3c-2.7,3.4 -5.5,6.7 -8.5,9.7c-2.6,2.6 -3.2,5.1 -1.4,8.4c12.1,22.1 29.4,38.4 52.6,48.5c3.1,1.4 5.4,0.5 7.5,-1.9c3.9,-4.5 8.1,-8.8 11.8,-13.6c2.7,-3.5 5.6,-4.5 9.5,-2.5c10.3,5.4 20.6,10.8 30.9,16.2c2.8,1.4 3.4,3.8 3.2,6.7c-1.1,17.4 -10.4,26.9 -29.8,31.8c-7.1,1.8 -14,0.8 -21.1,-1.2c-38.5,-11.1 -67.4,-34.4 -88.5,-68c-7,-11.2 -14,-22.3 -16.1,-35.6c-2.7,-16.8 2.4,-30.9 15,-42.2c3,-2.7 6.7,-4.1 10.9,-3.7z"/>
  </g>
</svg>